<svg width="60" height="45" viewBox="0 0 60 45" fill="none" xmlns="http://www.w3.org/2000/svg">
<g id="food">
<path id="Vector 33" d="M1.50824 23.911C1.80252 25.4245 2.55065 26.4077 3.13055 27.785C3.5254 28.7228 4.26359 29.4489 4.67469 30.369C5.11866 31.3627 5.78347 32.5299 6.40255 33.4143C6.93327 34.1724 7.28104 34.8909 7.95059 35.5604C9.13419 36.744 10.0296 38.1545 11.2187 39.3211C12.9471 41.0169 15.8739 43.2294 18.392 43.0895C19.2009 43.0446 20.0966 43.2953 20.89 43.1755C21.5706 43.0728 22.3972 43.0384 23.0792 43.156C24.1999 43.3492 25.4159 43.1548 26.488 43.3866C27.0666 43.5117 27.6964 43.3289 28.2823 43.4374C29.0419 43.5781 29.9319 43.6134 30.706 43.6134C33.2396 43.6134 35.7667 43.5981 38.2937 43.2772C39.6629 43.1033 41.0195 43.5572 42.3749 43.3163C43.6472 43.0901 45.3418 43.3237 46.5382 42.8002C48.0088 42.1569 49.4717 41.145 50.6077 40.0091C51.1774 39.4393 51.6098 38.7588 51.9955 38.0545C52.5021 37.1293 52.7841 36.1315 53.2933 35.2086C55.0691 31.99 56.0813 28.4074 57.5192 25.0525C57.858 24.2618 58.4151 23.6212 58.8209 22.8907C58.9236 22.7059 58.9701 22.4699 59.1376 22.2926C59.7644 21.6289 58.5636 21.5584 58.0117 21.3075" stroke="#00ADB5" stroke-opacity="0.2" stroke-width="1.28667" stroke-linecap="round" stroke-linejoin="round"/>
<path id="Vector 34" d="M1.22681 24.0517C2.4843 22.4064 3.55104 21.1979 5.37837 20.2676C6.90859 19.4886 8.4954 18.5633 9.87785 17.5468C12.0024 15.9847 14.9261 15.2885 17.5125 14.8182C20.3277 14.3064 23.0987 13.708 25.9642 13.708C26.8507 13.708 27.728 13.9749 28.6146 13.9895C29.6761 14.0069 30.7402 14.0403 31.7967 14.1302C33.4182 14.2682 35.0825 14.2356 36.7066 14.2709C38.9725 14.3202 41.1415 15.4931 43.407 15.6743C44.7546 15.7821 46.3262 15.9837 47.6367 16.3506C48.1276 16.488 48.6875 16.5815 49.1457 16.8041C49.7157 17.0809 50.1153 17.5493 50.639 17.8752C52.3295 18.9271 54.2193 19.4218 56.0454 20.2207C56.6051 20.4656 57.5678 20.8853 58.1877 20.8853C59.041 20.8853 58.9969 22.4605 58.9969 20.8853" stroke="#00ADB5" stroke-opacity="0.2" stroke-width="1.28667" stroke-linecap="round" stroke-linejoin="round"/>
<path id="Vector 35" d="M58.856 21.8704C57.8124 23.2691 57.0686 23.8016 55.588 24.6185C54.4256 25.2598 53.138 25.7134 51.8351 25.9516C50.6194 26.1738 49.2912 26.3494 48.0589 26.448C47.033 26.5301 45.9869 26.4108 44.9393 26.5301C42.5703 26.8 40.1799 27.4107 37.895 28.0782C34.6329 29.0311 31.483 29.1308 28.1142 29.3135C24.4364 29.5129 20.7487 29.2318 17.145 28.4847C15.9297 28.2328 14.6449 28.459 13.4078 28.4104C12.0452 28.357 10.7103 27.9816 9.42821 27.5387C8.88862 27.3523 8.39133 27.0656 7.82544 26.9367C7.16289 26.7857 6.48943 26.8452 5.83175 26.6865C4.91535 26.4653 3.84555 26.065 3.07186 25.5294C2.73521 25.2963 2.22974 25.1037 1.96556 24.7514C1.88849 24.6487 1.78965 24.4201 1.78965 24.298C1.78965 24.0067 1.55102 24.0803 1.93038 24.3332" stroke="#00ADB5" stroke-opacity="0.2" stroke-width="1.28667" stroke-linecap="round" stroke-linejoin="round"/>
<path id="Vector 36" d="M28.5988 36.1546C29.4552 36.0594 30.587 36.0758 30.2329 34.974C30.1192 34.6203 29.8328 34.5826 29.5292 34.4814C28.6241 34.1797 27.004 34.7639 26.6638 35.7089C26.0533 37.4047 27.2087 39.2362 29.0249 38.6486C29.519 38.4888 30.3957 38.1396 30.7098 37.6909C31.0869 37.1521 30.5208 37.3113 30.1469 36.7878" stroke="#00ADB5" stroke-opacity="0.2" stroke-width="1.28667" stroke-linecap="round" stroke-linejoin="round"/>
<path id="Vector 37" d="M25.9955 34.3251C27.3606 33.7774 28.059 33.5511 29.4395 33.5511C29.9959 33.5511 30.2742 33.5118 30.7647 33.8325C31.575 34.3624 31.8538 35.3694 31.7694 36.2562C31.698 37.0051 31.4502 38.0316 31.1869 38.7425C30.991 39.2713 30.5063 39.3626 30.0102 39.4618C29.5568 39.5525 28.5685 39.2989 28.212 39.497C27.8336 39.7072 26.6754 39.7781 26.3825 39.3875C26.113 39.0282 25.8241 38.8733 25.628 38.4376C25.4408 38.0215 25.3563 37.624 25.2058 37.2101C24.9991 36.6416 24.6276 35.0894 25.3974 34.7473C25.8485 34.5468 26.0417 34.4267 26.5584 34.4267C26.7051 34.4267 26.8307 34.5362 26.9806 34.5362C27.1969 34.5362 26.5636 34.3955 26.3473 34.3955" stroke="#00ADB5" stroke-opacity="0.2" stroke-width="1.28667" stroke-linecap="round" stroke-linejoin="round"/>
<path id="Vector 38" d="M28.4582 28.6958C29.4507 27.4124 30.3565 26.0889 31.3823 24.8413C31.9333 24.1711 32.6179 23.5946 33.2118 22.9532C34.9123 21.1166 36.6452 19.1066 37.9419 16.9604C39.2192 14.8462 40.9625 12.5438 42.8558 10.9559C43.8558 10.1171 44.7495 9.19009 45.6195 8.22336C46.4637 7.2854 46.8526 5.97365 47.6523 4.98264C48.2717 4.2152 52.3257 -1.00748 53.0314 2.16802C53.3086 3.41572 52.0914 4.28859 51.327 5.05301C50.4595 5.92046 49.5879 7.02255 48.8485 8.00835C48.1358 8.95871 47.2695 9.79416 46.5773 10.7526C45.6355 12.0566 43.9219 12.9894 43.2349 14.4663C42.6683 15.6847 41.7281 16.6639 41.0223 17.7931C40.0443 19.3579 38.8984 20.6649 37.7464 22.0971C36.8336 23.232 35.4029 24.1649 34.7559 25.459C34.2154 26.5399 33.2574 26.9956 32.383 27.6951C32.0024 27.9996 31.5398 28.1686 31.2024 28.5903C31.0902 28.7305 30.8894 28.8927 30.7842 28.7349C30.7242 28.6449 30.4953 28.8466 30.5379 28.946C30.6879 29.296 30.323 28.104 30.2877 27.9922" stroke="#00ADB5" stroke-opacity="0.2" stroke-width="1.28667" stroke-linecap="round" stroke-linejoin="round"/>
<path id="Vector 39" d="M27.8953 29.0476C28.1649 29.1843 29.8655 30.4754 29.8655 29.4346C29.8655 29.1196 30.2702 28.5945 30.4128 28.2736C30.5206 28.031 29.5489 28.2635 29.4042 28.4495C29.2152 28.6925 28.8488 28.8899 29.4433 28.9069C29.9001 28.9199 30.2571 28.7235 30.6043 28.4534C30.7041 28.3758 32.0466 28.5883 30.8506 28.555C30.2146 28.5374 29.5965 28.555 28.9859 28.555C28.4581 28.555 29.5277 28.4143 29.6818 28.4143C29.8048 28.4143 28.7898 29.018 28.6146 28.8209C28.5719 28.7729 28.4979 28.6407 28.6693 28.555" stroke="#00ADB5" stroke-opacity="0.2" stroke-width="1.28667" stroke-linecap="round" stroke-linejoin="round"/>
<path id="Vector 40" d="M5.51904 23.8406C5.59819 23.8826 8.11301 25.1993 8.12257 25.0368C8.13414 24.8401 7.99395 24.6686 8.09129 24.4739C8.51676 23.623 9.06731 24.031 9.79961 24.3605C10.3709 24.6176 9.50392 21.771 11.2265 22.9728C12.1165 23.5937 12.3539 23.4948 12.2077 22.4529C12.0969 21.6639 12.3694 21.6616 13.0481 21.7453C13.5095 21.8022 13.8402 21.9029 14.1036 21.4638C14.4232 20.9311 14.7834 20.628 15.4367 20.8579C15.9784 21.0485 16.4594 21.5844 16.8322 20.9009C16.9963 20.6002 16.8579 19.7002 17.3756 19.8728C17.7002 19.981 18.1277 20.4047 18.4976 20.2715C18.7778 20.1706 18.9931 19.3016 19.3107 19.4389C19.6419 19.5821 19.9796 20.2109 20.3974 20.0604C20.5992 19.9878 20.9734 19.3284 20.5773 19.4076" stroke="#00ADB5" stroke-opacity="0.2" stroke-width="1.28667" stroke-linecap="round" stroke-linejoin="round"/>
<path id="Vector 41" d="M15.4407 22.574C16.3129 23.2837 19.5794 27.0743 20.5383 24.2433C20.71 23.7363 20.7374 22.7319 21.2185 23.5631C21.6151 24.248 22.2121 24.7235 22.8604 24.0752C23.29 23.6456 23.4813 22.9163 24.0957 22.6913C24.6595 22.4848 25.0734 23.5449 25.5421 22.9259C25.9201 22.4267 25.7372 21.5682 25.1824 21.2684C25.0005 21.17 24.9497 21.5089 24.8697 21.5889" stroke="#00ADB5" stroke-opacity="0.2" stroke-width="1.28667" stroke-linecap="round" stroke-linejoin="round"/>
<path id="Vector 42" d="M22.9698 18.2113C24.3287 17.9779 26.0406 17.5027 27.0744 18.7195C27.5536 19.2836 27.5083 20.0038 27.1917 20.6429C26.9603 21.11 26.338 21.3429 25.9408 20.8852C25.6149 20.5098 26.2869 19.8908 26.5272 19.6616C27.3508 18.8764 28.5718 20.1338 28.8297 20.9869C29.0451 21.6995 27.097 23.3507 27.3324 22.6444" stroke="#00ADB5" stroke-opacity="0.2" stroke-width="1.28667" stroke-linecap="round" stroke-linejoin="round"/>
<path id="Vector 43" d="M45.8386 20.6038C46.2425 20.4651 48.839 19.6289 48.3405 21.0104C48.0848 21.7192 47.1063 22.0994 46.4641 22.3317C46.1604 22.4416 45.376 22.4226 45.8855 21.9799C46.3267 21.5966 46.9482 21.4168 47.5274 21.4639C49.7854 21.6474 46.6278 24.2413 45.9794 24.599C44.7196 25.2941 43.0058 26.0253 41.6871 25.1776" stroke="#00ADB5" stroke-opacity="0.2" stroke-width="1.28667" stroke-linecap="round" stroke-linejoin="round"/>
<path id="Vector 44" d="M31.9766 16.4522C32.5122 17.3236 33.1569 18.1991 33.6145 19.1144C33.7721 19.4294 33.0905 18.6228 32.9304 18.3091C32.888 18.226 32.5947 17.3021 32.5669 17.3083C32.2241 17.3845 32.1436 18.9537 32.0509 19.2434C31.6125 20.6133 30.5293 20.0885 29.4669 19.9861C28.1807 19.8622 27.6055 21.1309 26.8946 21.9407C26.3259 22.5887 26.1023 22.7876 26.4881 23.5591C26.8002 24.1834 26.93 24.7887 26.4881 25.3534C26.1432 25.7941 25.7115 26.0725 25.2958 26.4363C24.9149 26.7696 25.4611 26.7147 25.3896 26.5145C25.1944 25.968 23.9898 26.0818 23.5953 26.1079C22.1309 26.2047 20.6391 25.8374 19.2014 25.9281C18.4375 25.9763 17.7185 26.4023 16.9614 26.5145C16.1924 26.6284 17.2089 27.2958 17.4969 27.4879C17.9926 27.8183 16.5265 26.785 15.988 26.5301C15.0849 26.1027 14.2506 25.7717 13.7832 24.8257C13.3147 23.8774 12.9021 23.2309 12.1101 22.5349C11.837 22.2949 11.8047 21.9299 11.9381 21.6045C12.247 20.8507 12.9322 20.2372 13.6112 19.8298" stroke="#00ADB5" stroke-opacity="0.2" stroke-width="1.28667" stroke-linecap="round" stroke-linejoin="round"/>
<path id="Vector 45" d="M31.8357 19.2669C30.0718 18.0359 28.6164 17.5057 26.5426 17.2263C25.8136 17.128 25.036 16.6233 24.5606 16.0653C24.1388 15.57 24.3779 15.701 23.8804 16.3741C23.2009 17.2934 22.6964 16.4682 21.8281 16.7103C20.4975 17.0813 19.3553 18.3183 18.0049 18.5476C17.6351 18.6104 17.7243 17.9917 17.2622 18.2583C16.484 18.7073 15.8888 19.132 14.9792 19.2747C14.4291 19.361 13.3866 19.7233 13.4703 20.3927" stroke="#00ADB5" stroke-opacity="0.2" stroke-width="1.28667" stroke-linecap="round" stroke-linejoin="round"/>
<path id="Vector 46" d="M43.798 19.2668C45.5 19.4309 47.2245 19.4098 48.919 19.5913C49.5157 19.6552 49.8206 19.8964 50.2403 20.2871C50.6189 20.6396 51.2099 21.4694 51.7532 21.5146C52.5365 21.5799 52.9413 21.2545 53.6726 21.026C54.1129 20.8884 55.5177 21.026 55.0565 21.026" stroke="#00ADB5" stroke-opacity="0.2" stroke-width="1.28667" stroke-linecap="round" stroke-linejoin="round"/>
<path id="Vector 47" d="M42.5315 21.1667C40.7019 22.3724 39.7245 24.2009 37.7662 25.2988C37.3784 25.5161 36.1914 25.937 36.2807 26.6513C36.3453 27.1683 40.3094 25.5498 40.9131 25.2479" stroke="#00ADB5" stroke-opacity="0.2" stroke-width="1.28667" stroke-linecap="round" stroke-linejoin="round"/>
<path id="Vector 48" d="M49.3568 22.8555C50.3517 23.596 51.2094 24.6544 52.4529 24.2784C52.7894 24.1767 53.4935 24.137 53.7195 23.911" stroke="#00ADB5" stroke-opacity="0.2" stroke-width="1.28667" stroke-linecap="round" stroke-linejoin="round"/>
</g>
</svg>
